<svg width="49" height="49" viewBox="0 0 49 49" fill="none" xmlns="http://www.w3.org/2000/svg">
<circle cx="24.0258" cy="24.2229" r="24.0258" fill="#FD695A"/>
<path d="M25.629 16.0612C25.3609 16.3294 25.2102 16.693 25.2102 17.0723C25.2102 17.4515 25.3609 17.8152 25.629 18.0833L30.3369 22.7927L15.4451 22.8027C15.0659 22.8027 14.7021 22.9534 14.4339 23.2216C14.1657 23.4898 14.015 23.8535 14.015 24.2328C14.015 24.6121 14.1657 24.9759 14.4339 25.2441C14.7021 25.5123 15.0659 25.6629 15.4451 25.6629L30.3383 25.6529L25.629 30.3623C25.4924 30.4942 25.3834 30.652 25.3085 30.8265C25.2335 31.001 25.1941 31.1886 25.1924 31.3785C25.1908 31.5684 25.227 31.7567 25.2989 31.9325C25.3708 32.1082 25.477 32.2679 25.6112 32.4022C25.7455 32.5364 25.9052 32.6426 26.0809 32.7145C26.2567 32.7865 26.445 32.8226 26.6349 32.821C26.8248 32.8193 27.0125 32.7799 27.1869 32.7049C27.3614 32.63 27.5192 32.521 27.6511 32.3844L32.7795 27.2575C33.178 26.8591 33.4941 26.3861 33.7097 25.8655C33.9254 25.345 34.0364 24.787 34.0364 24.2235C34.0364 23.66 33.9254 23.1021 33.7097 22.5815C33.4941 22.0609 33.178 21.5879 32.7795 21.1895L27.6511 16.0612C27.383 15.7931 27.0193 15.6425 26.64 15.6425C26.2608 15.6425 25.8971 15.7931 25.629 16.0612Z" fill="white"/>
</svg>
