<svg width="49" height="49" viewBox="0 0 49 49" fill="none" xmlns="http://www.w3.org/2000/svg">
<circle cx="24.0258" cy="24.1711" r="24.0258" fill="white"/>
<g opacity="0.8">
<path d="M22.4227 16.0094C22.6908 16.2776 22.8414 16.6413 22.8414 17.0205C22.8414 17.3997 22.6908 17.7634 22.4227 18.0316L17.7148 22.7409L32.6065 22.751C32.9858 22.751 33.3496 22.9016 33.6178 23.1698C33.886 23.438 34.0366 23.8018 34.0366 24.1811C34.0366 24.5604 33.886 24.9241 33.6178 25.1923C33.3496 25.4605 32.9858 25.6112 32.6065 25.6112L17.7134 25.6012L22.4227 30.3105C22.5593 30.4424 22.6683 30.6002 22.7432 30.7747C22.8182 30.9492 22.8576 31.1369 22.8593 31.3267C22.8609 31.5166 22.8247 31.705 22.7528 31.8807C22.6809 32.0565 22.5747 32.2161 22.4404 32.3504C22.3062 32.4847 22.1465 32.5909 21.9707 32.6628C21.795 32.7347 21.6067 32.7709 21.4168 32.7692C21.2269 32.7676 21.0392 32.7281 20.8647 32.6532C20.6903 32.5782 20.5325 32.4693 20.4005 32.3327L15.2722 27.2057C14.8737 26.8073 14.5576 26.3343 14.3419 25.8138C14.1263 25.2932 14.0153 24.7352 14.0153 24.1718C14.0153 23.6083 14.1263 23.0503 14.3419 22.5298C14.5576 22.0092 14.8737 21.5362 15.2722 21.1378L20.4005 16.0094C20.6687 15.7413 21.0324 15.5907 21.4116 15.5907C21.7908 15.5907 22.1545 15.7413 22.4227 16.0094Z" fill="#3D3D3F"/>
</g>
</svg>
