<svg width="35" height="35" viewBox="0 0 35 35" fill="none" xmlns="http://www.w3.org/2000/svg">
<path d="M31.5665 0.689453H27.2181C25.8764 0.689453 24.7887 1.74845 24.7887 3.05488V7.28861C24.7887 8.59504 25.8764 9.65411 27.2181 9.65411H31.5665C32.9083 9.65411 33.996 8.59504 33.996 7.28861V3.05488C33.996 1.74845 32.9083 0.689453 31.5665 0.689453Z" fill="#FD695A"/>
<path d="M14.5381 9.90644H18.3565C19.9366 9.99388 21.4396 10.6 22.6204 11.6259L22.7636 11.7809C23.8228 12.9272 24.4462 14.3926 24.5296 15.9324V19.6347C24.5296 20.2797 24.7928 20.8983 25.2612 21.3544C25.7297 21.8105 26.365 22.0667 27.0275 22.0667H31.4982C32.1607 22.0667 32.796 21.8105 33.2645 21.3544C33.7329 20.8983 33.9961 20.2797 33.9961 19.6347V15.2818C33.9961 14.6368 33.7329 14.0182 33.2645 13.5621C32.796 13.106 32.1607 12.8498 31.4982 12.8498H27.6957C26.1142 12.7685 24.6092 12.1615 23.4318 11.1303L23.2727 10.9908C22.2169 9.84245 21.594 8.37831 21.5067 6.83929V3.1215C21.5067 2.47652 21.2436 1.8579 20.7752 1.4018C20.3066 0.945705 19.6713 0.689453 19.0088 0.689453H14.5381C13.8756 0.689453 13.2403 0.945705 12.7719 1.4018C12.3035 1.8579 12.0403 2.47652 12.0403 3.1215V7.47447C12.0403 8.11944 12.3035 8.738 12.7719 9.1941C13.2403 9.65019 13.8756 9.90644 14.5381 9.90644Z" fill="#FD695A"/>
<path d="M32.2142 25.1472H28.4317C26.8572 25.0477 25.3653 24.4117 24.2079 23.3465L23.7824 22.9238C22.7332 21.765 22.1156 20.2837 22.033 18.7273V14.9693C22.0288 14.3186 21.7668 13.6957 21.3037 13.2355C20.8405 12.7753 20.2135 12.515 19.5586 12.511H15.7761C14.2145 12.4456 12.7231 11.8485 11.5523 10.8199L11.1268 10.3971C10.0775 9.23837 9.46007 7.75713 9.37735 6.20065V2.45839C9.37735 1.80638 9.11664 1.18106 8.65266 0.720002C8.18862 0.259011 7.55926 0 6.90299 0H2.47429C1.81809 0 1.18867 0.259011 0.724694 0.720002C0.260647 1.18106 -6.10352e-05 1.80638 -6.10352e-05 2.45839V6.85832C-6.10352e-05 7.51032 0.260647 8.13564 0.724694 8.59663C1.18867 9.05769 1.81809 9.31671 2.47429 9.31671H6.24106C7.83158 9.38897 9.34725 10.009 10.5279 11.0704L10.9534 11.4932C11.9994 12.654 12.6163 14.134 12.7028 15.6895V19.4476C12.7069 20.0983 12.969 20.7212 13.4321 21.1813C13.8952 21.6415 14.5222 21.9018 15.1772 21.9059H18.9597C20.509 22.0023 21.9803 22.6145 23.1362 23.644L23.5617 24.0668C24.6077 25.2275 25.2246 26.7076 25.3111 28.2632V32.0212C25.3152 32.6719 25.5773 33.2948 26.0404 33.7549C26.5035 34.2151 27.1306 34.4754 27.7855 34.4795H32.2299C32.8849 34.4754 33.5119 34.2151 33.975 33.7549C34.4382 33.2948 34.7002 32.6719 34.7043 32.0212V27.6055C34.7001 26.9521 34.436 26.3268 33.9694 25.8662C33.5029 25.4057 32.8719 25.1471 32.2142 25.1472Z" fill="#FD695A"/>
<path d="M7.29911 24.8252H2.61629C1.17132 24.8252 -6.10352e-05 25.8843 -6.10352e-05 27.1907V31.4244C-6.10352e-05 32.7309 1.17132 33.7899 2.61629 33.7899H7.29911C8.74408 33.7899 9.91546 32.7309 9.91546 31.4244V27.1907C9.91546 25.8843 8.74408 24.8252 7.29911 24.8252Z" fill="#FD695A"/>
<path d="M19.4579 24.5731H15.6554C14.0739 24.4918 12.5689 23.8849 11.3915 22.8536L11.2324 22.7142C10.1698 21.5577 9.54655 20.0815 9.46638 18.5317V14.8139C9.45852 14.1875 9.2027 13.5882 8.75218 13.1408C8.30166 12.6936 7.69121 12.4328 7.04805 12.4128H2.49781C1.83531 12.4128 1.2 12.6691 0.731562 13.1252C0.263124 13.5813 -6.10352e-05 14.1998 -6.10352e-05 14.8449V19.1978C-6.10352e-05 19.8428 0.263124 20.4614 0.731562 20.9175C1.2 21.3736 1.83531 21.6298 2.49781 21.6298H6.31621C7.89625 21.7173 9.39931 22.3233 10.5801 23.3493L10.7233 23.5042C11.7825 24.6506 12.4058 26.1159 12.4893 27.6557V31.358C12.4893 31.6787 12.5544 31.9962 12.6809 32.2922C12.8075 32.5884 12.9929 32.8572 13.2266 33.0832C13.4601 33.3092 13.7374 33.4881 14.0423 33.6094C14.3472 33.7307 14.6737 33.7921 15.0031 33.79H19.4579C20.1204 33.79 20.7557 33.5338 21.2242 33.0778C21.6926 32.6217 21.9558 32.003 21.9558 31.358V27.0051C21.9558 26.3601 21.6926 25.7415 21.2242 25.2854C20.7557 24.8293 20.1204 24.5731 19.4579 24.5731Z" fill="#FD695A"/>
</svg>
